<?xml version="1.0" encoding="utf-8"?>
<!-- Generator: Adobe Illustrator 16.0.0, SVG Export Plug-In . SVG Version: 6.00 Build 0)  -->
<!DOCTYPE svg PUBLIC "-//W3C//DTD SVG 1.1//EN" "http://www.w3.org/Graphics/SVG/1.1/DTD/svg11.dtd">
<svg version="1.1" id="Camada_1" xmlns="http://www.w3.org/2000/svg" xmlns:xlink="http://www.w3.org/1999/xlink" x="0px" y="0px"
	 width="300px" height="388px" viewBox="170 100 300 388" enable-background="new 0 0 612 792" xml:space="preserve">
<g id="XMLID_3_">
	<path id="XMLID_12_" d="M246.664,390.262c-0.238-4.303-0.478-8.606-0.717-13.005l-0.335-6.503l-0.286-6.502l-0.287-6.503
		l-0.287-6.55l-0.526-13.053l-0.43-13.053l-0.239-6.551c-0.096-2.199-0.191-4.351-0.287-6.55l-0.334-6.551
		c-0.096-2.199-0.191-4.351-0.239-6.55c-0.048-2.2-0.048-4.352,0-6.551s0.096-4.351,0.239-6.551l0.19-3.155l2.63-0.813
		c0.239-0.096,0.431-0.144,0.622-0.191c0.19-0.048,0.382-0.096,0.573-0.144c0.383-0.096,0.718-0.191,1.1-0.239
		c0.718-0.191,1.435-0.286,2.151-0.43c0.718-0.144,1.435-0.239,2.152-0.335l2.151-0.239l2.151-0.144l2.151-0.048
		c0.718,0,1.435,0.048,2.151,0.048c0.718,0,1.435,0.096,2.152,0.144c0.717,0.096,1.434,0.144,2.151,0.239
		c0.717,0.096,1.435,0.239,2.151,0.335c0.717,0.144,1.387,0.286,2.104,0.478c0.335,0.096,0.718,0.144,1.052,0.239l1.053,0.335
		c0.669,0.239,1.386,0.43,2.056,0.669c0.669,0.287,1.339,0.526,1.96,0.813c0.335,0.143,0.67,0.286,0.956,0.43
		c0.335,0.144,0.622,0.335,0.957,0.479c0.621,0.334,1.242,0.669,1.864,1.004l-0.287,0.813c-0.717-0.048-1.387-0.144-2.056-0.191
		c-0.335-0.048-0.669-0.096-1.004-0.096c-0.335-0.047-0.67-0.047-1.004-0.047c-0.67-0.048-1.339-0.048-2.009-0.096h-2.008h-1.004
		c-0.335,0-0.67,0.048-1.004,0.048l-1.961,0.095c-0.669,0.048-1.291,0.144-1.96,0.191c-0.621,0.048-1.291,0.144-1.912,0.239
		c-0.622,0.096-1.291,0.144-1.913,0.239c-0.621,0.096-1.291,0.191-1.912,0.335l-1.913,0.382c-0.621,0.144-1.243,0.287-1.864,0.431
		c-1.243,0.335-2.486,0.621-3.682,1.004c-0.621,0.191-1.195,0.383-1.769,0.574c-0.287,0.096-0.574,0.19-0.861,0.286
		c-0.144,0.048-0.287,0.096-0.43,0.144c-0.144,0.048-0.287,0.096-0.335,0.144l2.773-3.969c0.143,2.2,0.19,4.352,0.238,6.551
		s0.048,4.351,0,6.551c-0.048,2.199-0.144,4.351-0.238,6.55l-0.335,6.551c-0.096,2.199-0.239,4.351-0.287,6.55l-0.239,6.551
		l-0.43,13.053l-0.526,13.053l-0.287,6.55l-0.286,6.551l-0.287,6.55l-0.335,6.455c-0.191,4.351-0.479,8.702-0.717,13.005h-0.909
		V390.262z"/>
</g>
<g id="XMLID_2_">
	<path id="XMLID_33_" d="M313.841,322.177c2.391-0.669,4.781-0.956,7.268-1.004c2.438-0.048,4.925,0.287,7.315,1.1
		c2.343,0.813,4.59,2.199,6.264,4.112c1.673,1.912,2.868,4.207,3.586,6.598c0.717,2.391,1.004,4.877,1.1,7.363v0.478v0.239v0.048
		v0.144v0.144c-0.048,0.335-0.096,0.669-0.191,1.004c-0.144,0.622-0.335,1.243-0.574,1.865c-0.478,1.195-1.1,2.343-1.769,3.395
		c-1.435,2.104-3.204,3.92-5.212,5.45c-1.96,1.53-4.16,2.773-6.407,3.873c-2.247,1.052-4.542,1.912-6.885,2.63
		c-0.573,0.191-1.195,0.382-1.769,0.525l-0.909,0.239l-0.43,0.096l-0.096,0.048l-0.191,0.048c-0.048,0-0.191,0.048-0.287,0.048
		l-0.956,0.096l-0.908,0.096l-1.817,0.144l-1.816,0.143l-0.909,0.048c-0.334,0-0.573,0.048-1.052,0.048
		c-1.291-0.048-2.534-0.238-3.776-0.43c-2.486-0.431-4.925-1.052-7.268-1.913c-2.343-0.86-4.686-2.008-6.789-3.49
		c-2.104-1.434-4.064-3.251-5.643-5.402c-1.577-2.104-2.725-4.542-3.442-7.076c-0.717-2.534-0.956-5.164-0.908-7.746v0.239
		c0-0.239,0-0.431-0.048-0.621v-0.526c0-0.335,0-0.717,0-1.052c0.048-0.718,0.096-1.387,0.144-2.056
		c0.144-1.387,0.335-2.726,0.621-4.064c0.526-2.678,1.339-5.26,2.295-7.793c1.004-2.534,2.199-4.973,3.538-7.315
		s2.917-4.543,4.591-6.646c3.347-4.207,7.314-7.937,11.522-11.235c2.104-1.626,4.303-3.156,6.598-4.591
		c2.247-1.386,4.59-2.725,6.933-3.92s4.781-2.343,7.22-3.395c2.438-1.053,4.925-1.961,7.411-2.869
		c2.486-0.86,5.021-1.674,7.555-2.438c1.243-0.383,2.534-0.717,3.825-1.052l1.912-0.526l1.912-0.478
		c1.291-0.335,2.582-0.622,3.825-0.909c1.291-0.286,2.582-0.573,3.873-0.813c1.291-0.287,2.582-0.525,3.873-0.717l1.96-0.335
		l1.96-0.335c1.291-0.191,2.582-0.43,3.873-0.621s2.582-0.383,3.873-0.526s2.582-0.334,3.921-0.478l3.92-0.431h0.144h0.144h0.431
		h0.334c0.239,0,0.431,0.048,0.67,0.048c0.431,0.048,0.86,0.096,1.339,0.191c0.86,0.144,1.769,0.335,2.63,0.669
		c0.908,0.287,1.769,0.67,2.677,1.195c0.861,0.526,1.722,1.195,2.486,2.009c0.766,0.813,1.387,1.816,1.817,2.868
		c0.43,1.052,0.669,2.151,0.765,3.204c0.191,2.104-0.144,3.968-0.621,5.642c-0.239,0.86-0.526,1.625-0.813,2.438
		c-0.335,0.765-0.621,1.529-1.004,2.247c-0.717,1.435-1.482,2.821-2.295,4.111c-1.626,2.63-3.442,5.021-5.308,7.363l-0.43-5.546
		l1.816,1.578l1.77,1.577c1.195,1.052,2.343,2.104,3.49,3.204c2.295,2.151,4.638,4.351,6.837,6.646
		c2.247,2.295,4.446,4.638,6.551,7.172c1.052,1.291,2.104,2.63,3.107,4.255c0.479,0.813,1.004,1.674,1.435,2.821
		c0.239,0.574,0.431,1.243,0.573,2.247c0.048,0.479,0.096,1.052-0.048,1.77c-0.095,0.717-0.382,1.529-0.908,2.295l-0.287,0.43
		l-0.334,0.335c-0.526,0.526-1.004,0.956-1.53,1.387l-1.482,1.339c-1.004,0.86-2.008,1.721-3.06,2.534
		c-2.056,1.673-4.208,3.251-6.455,4.733c-1.147,0.765-2.295,1.482-3.49,2.151s-2.438,1.339-3.729,1.96
		c-1.291,0.574-2.63,1.147-4.111,1.578c-1.435,0.431-3.013,0.813-4.733,0.908l1.625-8.271c0.766,0.383,1.435,0.766,2.152,1.147
		c0.669,0.383,1.386,0.766,2.056,1.147c1.339,0.766,2.678,1.578,4.016,2.438c2.678,1.674,5.26,3.49,7.794,5.451
		c1.243,1.004,2.486,2.056,3.682,3.155s2.391,2.295,3.49,3.634s2.151,2.726,3.06,4.446c0.431,0.861,0.813,1.77,1.147,2.773
		c0.287,1.004,0.526,2.056,0.526,3.203l0.096,2.343l-1.913,1.052c-0.478,0.239-0.813,0.431-1.195,0.622l-1.147,0.573
		c-0.765,0.383-1.529,0.718-2.295,1.053c-1.529,0.669-3.06,1.243-4.638,1.816c-3.155,1.1-6.358,2.008-9.658,2.582
		c-3.299,0.573-6.693,0.86-10.136,0.669s-6.885-0.813-10.137-2.104l3.156-3.921c0.286,0.526,0.525,0.957,0.765,1.435
		c0.239,0.479,0.479,0.956,0.669,1.387c0.431,0.956,0.813,1.912,1.195,2.917c0.718,1.96,1.291,4.063,1.435,6.311
		c0.048,1.147,0.048,2.343-0.287,3.586c-0.286,1.243-0.908,2.486-1.864,3.442c-0.908,0.957-2.151,1.626-3.203,1.961l-0.479,0.144
		l-0.431,0.096c-0.286,0.048-0.573,0.095-0.908,0.143c-0.573,0.048-1.147,0.096-1.721,0.048c-2.248-0.096-4.304-0.765-6.168-1.529
		c-0.956-0.383-1.865-0.861-2.726-1.339c-0.908-0.479-1.769-1.004-2.582-1.53c-1.673-1.052-3.299-2.199-4.877-3.395
		c-1.529-1.195-3.06-2.486-4.494-3.825l0.574-0.669c0.765,0.573,1.577,1.1,2.391,1.625c0.813,0.526,1.625,1.052,2.438,1.53
		c1.673,1.004,3.347,1.912,5.067,2.773c1.722,0.813,3.442,1.577,5.212,2.104c1.769,0.526,3.538,0.908,5.212,0.813
		c0.43,0,0.813-0.096,1.195-0.144c0.19-0.048,0.382-0.096,0.525-0.143l0.239-0.096l0.191-0.096c0.765-0.335,1.243-0.718,1.625-1.195
		c0.383-0.479,0.622-1.052,0.718-1.722c0.096-0.669,0.096-1.435-0.048-2.247c-0.239-1.626-0.813-3.299-1.578-4.925
		c-0.383-0.813-0.765-1.626-1.243-2.438c-0.239-0.383-0.43-0.813-0.669-1.195s-0.479-0.813-0.718-1.1l-4.303-6.359l7.459,2.391
		c2.677,0.861,5.546,1.243,8.463,1.195c2.916-0.048,5.833-0.478,8.701-1.147c2.869-0.669,5.738-1.625,8.511-2.725
		c1.387-0.574,2.773-1.195,4.112-1.817c0.669-0.335,1.339-0.669,2.008-1.004l0.956-0.526c0.287-0.19,0.67-0.382,0.909-0.525
		l-1.865,3.395c-0.048-0.717-0.383-1.674-0.956-2.63c-0.574-0.956-1.339-1.96-2.199-2.916c-1.77-1.961-3.921-3.729-6.216-5.451
		c-2.295-1.673-4.733-3.251-7.22-4.733c-1.243-0.765-2.534-1.435-3.777-2.151c-0.621-0.335-1.291-0.717-1.912-1.052
		c-0.622-0.335-1.291-0.67-1.913-0.956l-14.248-6.886l15.874-1.338c0.813-0.048,1.77-0.287,2.726-0.622s1.96-0.765,2.964-1.243
		c1.004-0.478,2.009-1.052,3.013-1.626c1.004-0.573,2.008-1.242,3.012-1.912c2.009-1.339,3.921-2.773,5.833-4.303
		c0.957-0.766,1.913-1.53,2.821-2.343l1.387-1.195c0.431-0.383,0.908-0.813,1.291-1.195l-0.622,0.765
		c-0.286,0.431-0.43,0.908-0.478,1.195c-0.048,0.335-0.048,0.479,0,0.621c0.048,0.191,0.048,0.096,0-0.047
		c-0.096-0.287-0.383-0.813-0.67-1.339c-0.621-1.052-1.481-2.2-2.391-3.348c-1.816-2.295-3.825-4.542-5.929-6.741
		s-4.255-4.398-6.406-6.55c-1.1-1.101-2.2-2.152-3.3-3.204l-1.673-1.577l-1.674-1.578l-2.869-2.678l2.438-2.868
		c1.817-2.104,3.491-4.256,4.973-6.455c0.766-1.1,1.435-2.247,2.009-3.347c0.286-0.574,0.573-1.147,0.813-1.674
		c0.239-0.573,0.479-1.1,0.621-1.625c0.335-1.101,0.479-2.104,0.431-2.869c0-0.383-0.096-0.717-0.191-1.004s-0.239-0.526-0.43-0.766
		c-0.383-0.478-1.147-0.956-2.104-1.339c-0.478-0.19-1.004-0.334-1.529-0.43c-0.287-0.048-0.526-0.096-0.813-0.144l-0.382-0.048
		h-0.287h0.335l-3.825,0.335c-1.291,0.096-2.534,0.239-3.825,0.382c-1.291,0.144-2.534,0.287-3.777,0.431s-2.534,0.335-3.777,0.526
		l-1.912,0.286l-1.865,0.287c-1.243,0.191-2.533,0.383-3.776,0.622c-1.243,0.238-2.486,0.43-3.729,0.717
		c-1.243,0.239-2.486,0.526-3.729,0.765l-1.865,0.431l-1.864,0.479c-1.243,0.286-2.438,0.621-3.682,0.956
		c-2.438,0.669-4.877,1.387-7.268,2.199s-4.781,1.674-7.124,2.63c-2.343,0.908-4.638,1.96-6.885,3.06s-4.447,2.295-6.599,3.538
		s-4.255,2.63-6.263,4.112c-4.017,2.964-7.698,6.312-10.901,10.088c-1.578,1.913-3.061,3.873-4.351,5.977
		c-1.291,2.104-2.438,4.256-3.396,6.551c-0.956,2.247-1.721,4.59-2.247,6.98c-0.286,1.195-0.478,2.391-0.621,3.586
		c-0.096,0.622-0.144,1.195-0.191,1.817c0,0.286-0.048,0.573-0.048,0.908v0.43v0.383v0.239c-0.096,2.247,0.048,4.446,0.574,6.55
		c0.525,2.104,1.386,4.112,2.629,5.881c1.243,1.77,2.821,3.348,4.59,4.639c1.817,1.291,3.825,2.391,5.93,3.203
		c2.104,0.86,4.351,1.482,6.598,1.912c1.147,0.239,2.295,0.383,3.395,0.479c0.144,0,0.431,0,0.717,0l0.909-0.048l1.769-0.096
		l1.77-0.096l0.908-0.048l0.813-0.048c0.048,0,0.048,0,0.144,0h0.048h0.048c-0.048,0,0.096,0-0.048,0l0.096-0.048l0.431-0.096
		l0.86-0.191c0.573-0.143,1.147-0.286,1.721-0.43c2.248-0.622,4.495-1.387,6.599-2.295c2.104-0.956,4.159-2.057,6.024-3.395
		c1.864-1.339,3.538-2.917,4.829-4.781c0.669-0.909,1.243-1.913,1.673-2.917c0.239-0.526,0.383-1.052,0.526-1.578
		c0.048-0.238,0.144-0.525,0.144-0.765v-0.048l0,0c0-0.096,0,0.048,0,0.048v-0.048v-0.239v-0.43c0-2.343-0.239-4.686-0.813-6.886
		c-0.573-2.247-1.577-4.351-3.012-6.072c-1.435-1.721-3.395-3.06-5.546-3.872c-2.152-0.813-4.495-1.195-6.838-1.243
		s-4.733,0.191-7.028,0.765L313.841,322.177z"/>
</g>
</svg>
