<svg width="1090" height="840" xmlns="http://www.w3.org/2000/svg">
 <style type="text/css">.st0{font-family:'Sketch';}
	.st1{font-size:204.5075px;}
	.st2{fill:#202020;}
	.st3{fill:#FFFFFF;}
	.st4{font-family:'FuturaBT-BookItalic';}
	.st5{font-size:22.6192px;}</style>

 <g>
  <title>background</title>
  <rect fill="none" id="canvas_background" height="842" width="1092" y="-1" x="-1"/>
 </g>
 <g>
  <title>Layer 1</title>
  <g stroke="null" id="svg_1">
   <g stroke="null" id="XMLID_3_">
    <path fill="#00bcd4" stroke="null" d="m45.5716,805.22265c-1.547777,-27.85998 -3.095553,-55.719961 -4.64333,-84.199052l-2.166887,-42.099526l-1.857332,-42.099526l-1.857332,-42.099526l-1.857332,-42.409081l-3.405109,-84.508607l-2.785998,-84.508607l-1.547777,-42.409081c-0.619111,-14.239546 -1.238221,-28.169536 -1.857332,-42.409081l-2.166887,-42.409081c-0.619111,-14.239546 -1.238221,-28.169536 -1.547777,-42.409081c-0.309555,-14.239546 -0.309555,-28.169536 0,-42.409081c0.309555,-14.239546 0.619111,-28.169536 1.547777,-42.409081l1.238221,-20.430652l17.025544,-5.262441c1.547777,-0.619111 2.785998,-0.928666 4.024219,-1.238221c1.238221,-0.309555 2.476443,-0.619111 3.714664,-0.928666c2.476443,-0.619111 4.64333,-1.238221 7.119773,-1.547777c4.64333,-1.238221 9.28666,-1.857332 13.92999,-2.785998c4.64333,-0.928666 9.28666,-1.547777 13.92999,-2.166887l13.92999,-1.547777l13.92999,-0.928666l13.92999,-0.309555c4.64333,0 9.28666,0.309555 13.92999,0.309555c4.64333,0 9.28666,0.619111 13.92999,0.928666c4.64333,0.619111 9.28666,0.928666 13.92999,1.547777c4.64333,0.619111 9.28666,1.547777 13.92999,2.166887c4.64333,0.928666 8.977105,1.857332 13.620435,3.095553c2.166887,0.619111 4.64333,0.928666 6.810217,1.547777l6.810217,2.166887c4.333775,1.547777 8.977105,2.785998 13.31088,4.333775c4.333775,1.857332 8.667549,3.405109 12.691769,5.262441c2.166887,0.928666 4.333775,1.857332 6.191107,2.785998c2.166887,0.928666 4.024219,2.166887 6.191107,3.095553c4.024219,2.166887 8.048439,4.333775 12.072658,6.500662l-1.857332,5.262441c-4.64333,-0.309555 -8.977105,-0.928666 -13.31088,-1.238221c-2.166887,-0.309555 -4.333775,-0.619111 -6.500662,-0.619111c-2.166887,-0.309555 -4.333775,-0.309555 -6.500662,-0.309555c-4.333775,-0.309555 -8.667549,-0.309555 -13.001324,-0.619111l-13.001324,0l-6.500662,0c-2.166887,0 -4.333775,0.309555 -6.500662,0.309555l-12.691769,0.619111c-4.333775,0.309555 -8.357994,0.928666 -12.691769,1.238221c-4.024219,0.309555 -8.357994,0.928666 -12.382214,1.547777c-4.024219,0.619111 -8.357994,0.928666 -12.382214,1.547777c-4.024219,0.619111 -8.357994,1.238221 -12.382214,2.166887l-12.382214,2.476443c-4.024219,0.928666 -8.048439,1.857332 -12.072658,2.785998c-8.048439,2.166887 -16.096878,4.024219 -23.835761,6.500662c-4.024219,1.238221 -7.738883,2.476443 -11.453548,3.714664c-1.857332,0.619111 -3.714664,1.238221 -5.571996,1.857332c-0.928666,0.309555 -1.857332,0.619111 -2.785998,0.928666c-0.928666,0.309555 -1.857332,0.619111 -2.166887,0.928666l17.95421,-25.693093c0.928666,14.239546 1.238221,28.169536 1.547777,42.409081c0.309555,14.239546 0.309555,28.169536 0,42.409081c-0.309555,14.239546 -0.928666,28.169536 -1.547777,42.409081l-2.166887,42.409081c-0.619111,14.239546 -1.547777,28.169536 -1.857332,42.409081l-1.547777,42.409081l-2.785998,84.508607l-3.405109,84.508607l-1.857332,42.409081l-1.857332,42.409081l-1.857332,42.409081l-2.166887,41.789971c-1.238221,28.169536 -3.095553,56.339072 -4.64333,84.199052l-5.881551,0l0,-0.309555z" id="XMLID_12_"/>
   </g>
   <g stroke="null" id="XMLID_2_">
    <path fill="#00bcd4" stroke="null" d="m480.496851,364.415847c15.477767,-4.333775 30.955534,-6.191107 47.052411,-6.500662c15.787322,-0.309555 31.8842,1.857332 47.361967,7.119773c15.168212,5.262441 29.717313,14.239546 40.551749,26.621759c10.834437,12.382214 18.57332,27.24087 23.21665,42.718637c4.64333,15.477767 6.500662,31.574645 7.119773,47.671522l0,3.095553l0,1.547777l0,0.309555l0,0.928666l0,0.928666c-0.309555,2.166887 -0.619111,4.333775 -1.238221,6.500662c-0.928666,4.024219 -2.166887,8.048439 -3.714664,12.072658c-3.095553,7.738883 -7.119773,15.168212 -11.453548,21.978429c-9.28666,13.620435 -20.740208,25.383538 -33.741532,35.289309c-12.691769,9.905771 -26.931314,17.95421 -41.480415,25.073982c-14.549101,6.810217 -29.407757,12.382214 -44.575969,17.025544c-3.714664,1.238221 -7.738883,2.476443 -11.453548,3.405109l-5.881551,1.547777l-2.785998,0.619111l-0.619111,0.309555l-1.238221,0.309555c-0.309555,0 -1.238221,0.309555 -1.857332,0.309555l-6.191107,0.619111l-5.881551,0.619111l-11.763103,0.928666l-11.763103,0.928666l-5.881551,0.309555c-2.166887,0 -3.714664,0.309555 -6.810217,0.309555c-8.357994,-0.309555 -16.406433,-1.547777 -24.454872,-2.785998c-16.096878,-2.785998 -31.8842,-6.810217 -47.052411,-12.382214c-15.168212,-5.571996 -30.336423,-13.001324 -43.956858,-22.59754c-13.620435,-9.28666 -26.312204,-21.049763 -36.52753,-34.979753c-10.215326,-13.620435 -17.644654,-29.407757 -22.287984,-45.81419c-4.64333,-16.406433 -6.191107,-33.431977 -5.881551,-50.147965l0,1.547777c0,-1.547777 0,-2.785998 -0.309555,-4.024219l0,-3.405109c0,-2.166887 0,-4.64333 0,-6.810217c0.309555,-4.64333 0.619111,-8.977105 0.928666,-13.31088c0.928666,-8.977105 2.166887,-17.644654 4.024219,-26.312204c3.405109,-17.335099 8.667549,-34.051087 14.858656,-50.45752c6.500662,-16.406433 14.239546,-32.193755 22.907095,-47.361967c8.667549,-15.168212 18.882876,-29.407757 29.717313,-43.028192c21.668874,-27.24087 47.361967,-51.386186 74.602837,-72.745505c13.620435,-10.524882 27.85998,-20.430652 42.718637,-29.717313c14.549101,-8.977105 29.717313,-17.644654 44.885524,-25.383538c15.168212,-7.738883 30.955534,-15.168212 46.742856,-21.978429c15.787322,-6.810217 31.8842,-12.691769 47.981078,-18.57332c16.096878,-5.571996 32.503311,-10.834437 48.909744,-15.787322c8.048439,-2.476443 16.406433,-4.64333 24.764427,-6.810217l12.382214,-3.405109l12.382214,-3.095553c8.357994,-2.166887 16.715988,-4.024219 24.764427,-5.881551c8.357994,-1.857332 16.715988,-3.714664 25.073982,-5.262441c8.357994,-1.857332 16.715988,-3.405109 25.073982,-4.64333l12.691769,-2.166887l12.691769,-2.166887c8.357994,-1.238221 16.715988,-2.785998 25.073982,-4.024219c8.357994,-1.238221 16.715988,-2.476443 25.073982,-3.405109c8.357994,-0.928666 16.715988,-2.166887 25.383538,-3.095553l25.383538,-2.785998l0.928666,0l0.928666,0l2.785998,0l2.166887,0c1.547777,0 2.785998,0.309555 4.333775,0.309555c2.785998,0.309555 5.571996,0.619111 8.667549,1.238221c5.571996,0.928666 11.453548,2.166887 17.025544,4.333775c5.881551,1.857332 11.453548,4.333775 17.335099,7.738883c5.571996,3.405109 11.143992,7.738883 16.096878,13.001324c4.952885,5.262441 8.977105,11.763103 11.763103,18.57332c2.785998,6.810217 4.333775,13.92999 4.952885,20.740208c1.238221,13.620435 -0.928666,25.693093 -4.024219,36.52753c-1.547777,5.571996 -3.405109,10.524882 -5.262441,15.787322c-2.166887,4.952885 -4.024219,9.905771 -6.500662,14.549101c-4.64333,9.28666 -9.596216,18.263765 -14.858656,26.621759c-10.524882,17.025544 -22.287984,32.503311 -34.360643,47.671522l-2.785998,-35.908419l11.763103,10.215326l11.453548,10.215326c7.738883,6.810217 15.168212,13.620435 22.59754,20.740208c14.858656,13.92999 30.026868,28.169536 44.266413,43.028192c14.549101,14.858656 28.788647,30.026868 42.409081,46.433301c6.810217,8.357994 13.620435,17.025544 20.121097,27.550425c3.095553,5.262441 6.500662,10.834437 9.28666,18.263765c1.547777,3.714664 2.785998,8.048439 3.714664,14.549101c0.309555,3.095553 0.619111,6.810217 -0.309555,11.453548c-0.619111,4.64333 -2.476443,9.905771 -5.881551,14.858656l-1.857332,2.785998l-2.166887,2.166887c-3.405109,3.405109 -6.500662,6.191107 -9.905771,8.977105l-9.596216,8.667549c-6.500662,5.571996 -13.001324,11.143992 -19.811542,16.406433c-13.31088,10.834437 -27.24087,21.049763 -41.789971,30.645979c-7.429328,4.952885 -14.858656,9.596216 -22.59754,13.92999c-7.738883,4.333775 -15.787322,8.667549 -24.145316,12.691769c-8.357994,3.714664 -17.025544,7.429328 -26.621759,10.215326c-9.28666,2.785998 -19.501986,5.262441 -30.645979,5.881551l10.524882,-53.553074c4.952885,2.476443 9.28666,4.952885 13.92999,7.429328c4.333775,2.476443 8.977105,4.952885 13.31088,7.429328c8.667549,4.952885 17.335099,10.215326 26.002648,15.787322c17.335099,10.834437 34.051087,22.59754 50.45752,35.289309c8.048439,6.500662 16.096878,13.31088 23.835761,20.430652c7.738883,7.119773 15.477767,14.858656 22.59754,23.526206c7.119773,8.667549 13.92999,17.644654 19.811542,28.788647c2.785998,5.571996 5.262441,11.453548 7.429328,17.95421c1.857332,6.500662 3.405109,13.31088 3.405109,20.740208l0.619111,15.168212l-12.382214,6.810217c-3.095553,1.547777 -5.262441,2.785998 -7.738883,4.024219l-7.429328,3.714664c-4.952885,2.476443 -9.905771,4.64333 -14.858656,6.810217c-9.905771,4.333775 -19.811542,8.048439 -30.026868,11.763103c-20.430652,7.119773 -41.17086,13.001324 -62.530178,16.715988c-21.359318,3.714664 -43.337747,5.571996 -65.625732,4.333775c-22.287984,-1.238221 -44.575969,-5.262441 -65.625732,-13.620435l20.430652,-25.383538c1.857332,3.405109 3.405109,6.191107 4.952885,9.28666c1.547777,3.095553 3.095553,6.191107 4.333775,8.977105c2.785998,6.191107 5.262441,12.382214 7.738883,18.882876c4.64333,12.691769 8.357994,26.312204 9.28666,40.861305c0.309555,7.429328 0.309555,15.168212 -1.857332,23.21665c-1.857332,8.048439 -5.881551,16.096878 -12.072658,22.287984c-5.881551,6.191107 -13.92999,10.524882 -20.740208,12.691769l-3.095553,0.928666l-2.785998,0.619111c-1.857332,0.309555 -3.714664,0.619111 -5.881551,0.928666c-3.714664,0.309555 -7.429328,0.619111 -11.143992,0.309555c-14.549101,-0.619111 -27.85998,-4.952885 -39.932639,-9.905771c-6.191107,-2.476443 -12.072658,-5.571996 -17.644654,-8.667549c-5.881551,-3.095553 -11.453548,-6.500662 -16.715988,-9.905771c-10.834437,-6.810217 -21.359318,-14.239546 -31.574645,-21.978429c-9.905771,-7.738883 -19.811542,-16.096878 -29.098202,-24.764427l3.714664,-4.333775c4.952885,3.714664 10.215326,7.119773 15.477767,10.524882c5.262441,3.405109 10.524882,6.810217 15.787322,9.905771c10.834437,6.500662 21.668874,12.382214 32.812866,17.95421c11.143992,5.262441 22.287984,10.215326 33.741532,13.620435c11.453548,3.405109 22.907095,5.881551 33.741532,5.262441c2.785998,0 5.262441,-0.619111 7.738883,-0.928666c1.238221,-0.309555 2.476443,-0.619111 3.405109,-0.928666l1.547777,-0.619111l1.238221,-0.619111c4.952885,-2.166887 8.048439,-4.64333 10.524882,-7.738883c2.476443,-3.095553 4.024219,-6.810217 4.64333,-11.143992c0.619111,-4.333775 0.619111,-9.28666 -0.309555,-14.549101c-1.547777,-10.524882 -5.262441,-21.359318 -10.215326,-31.8842c-2.476443,-5.262441 -4.952885,-10.524882 -8.048439,-15.787322c-1.547777,-2.476443 -2.785998,-5.262441 -4.333775,-7.738883c-1.547777,-2.476443 -3.095553,-5.262441 -4.64333,-7.119773l-27.85998,-41.17086l48.290633,15.477767c17.335099,5.571996 35.908419,8.048439 54.791295,7.738883c18.882876,-0.309555 37.765751,-3.095553 56.339072,-7.429328c18.57332,-4.333775 37.146641,-10.524882 55.10085,-17.644654c8.977105,-3.714664 17.95421,-7.738883 26.621759,-11.763103c4.333775,-2.166887 8.667549,-4.333775 13.001324,-6.500662l6.191107,-3.405109c1.857332,-1.238221 4.333775,-2.476443 5.881551,-3.405109l-12.072658,21.978429c-0.309555,-4.64333 -2.476443,-10.834437 -6.191107,-17.025544c-3.714664,-6.191107 -8.667549,-12.691769 -14.239546,-18.882876c-11.453548,-12.691769 -25.383538,-24.145316 -40.242194,-35.289309c-14.858656,-10.834437 -30.645979,-21.049763 -46.742856,-30.645979c-8.048439,-4.952885 -16.406433,-9.28666 -24.454872,-13.92999c-4.024219,-2.166887 -8.357994,-4.64333 -12.382214,-6.810217c-4.024219,-2.166887 -8.357994,-4.333775 -12.382214,-6.191107l-92.247491,-44.575969l102.772372,-8.667549c5.262441,-0.309555 11.453548,-1.857332 17.644654,-4.024219c6.191107,-2.166887 12.691769,-4.952885 19.192431,-8.048439c6.500662,-3.095553 13.001324,-6.810217 19.501986,-10.524882c6.500662,-3.714664 13.001324,-8.048439 19.501986,-12.382214c13.001324,-8.667549 25.383538,-17.95421 37.765751,-27.85998c6.191107,-4.952885 12.382214,-9.905771 18.263765,-15.168212l8.977105,-7.738883c2.785998,-2.476443 5.881551,-5.262441 8.357994,-7.738883l-4.024219,4.952885c-1.857332,2.785998 -2.785998,5.881551 -3.095553,7.738883c-0.309555,2.166887 -0.309555,3.095553 0,4.024219c0.309555,1.238221 0.309555,0.619111 0,-0.309555c-0.619111,-1.857332 -2.476443,-5.262441 -4.333775,-8.667549c-4.024219,-6.810217 -9.596216,-14.239546 -15.477767,-21.668874c-11.763103,-14.858656 -24.764427,-29.407757 -38.384862,-43.647303c-13.620435,-14.239546 -27.550425,-28.479091 -41.480415,-42.409081c-7.119773,-7.119773 -14.239546,-13.92999 -21.359318,-20.740208l-10.834437,-10.215326l-10.834437,-10.215326l-18.57332,-17.335099l15.787322,-18.57332c11.763103,-13.620435 22.59754,-27.550425 32.193755,-41.789971c4.952885,-7.119773 9.28666,-14.549101 13.001324,-21.668874c1.857332,-3.714664 3.714664,-7.429328 5.262441,-10.834437c1.547777,-3.714664 3.095553,-7.119773 4.024219,-10.524882c2.166887,-7.119773 3.095553,-13.620435 2.785998,-18.57332c0,-2.476443 -0.619111,-4.64333 -1.238221,-6.500662c-0.619111,-1.857332 -1.547777,-3.405109 -2.785998,-4.952885c-2.476443,-3.095553 -7.429328,-6.191107 -13.620435,-8.667549c-3.095553,-1.238221 -6.500662,-2.166887 -9.905771,-2.785998c-1.857332,-0.309555 -3.405109,-0.619111 -5.262441,-0.928666l-2.476443,-0.309555l-1.857332,0l2.166887,0l-24.764427,2.166887c-8.357994,0.619111 -16.406433,1.547777 -24.764427,2.476443c-8.357994,0.928666 -16.406433,1.857332 -24.454872,2.785998c-8.048439,0.928666 -16.406433,2.166887 -24.454872,3.405109l-12.382214,1.857332l-12.072658,1.857332c-8.048439,1.238221 -16.406433,2.476443 -24.454872,4.024219c-8.048439,1.547777 -16.096878,2.785998 -24.145316,4.64333c-8.048439,1.547777 -16.096878,3.405109 -24.145316,4.952885l-12.072658,2.785998l-12.072658,3.095553c-8.048439,1.857332 -15.787322,4.024219 -23.835761,6.191107c-15.787322,4.333775 -31.574645,8.977105 -47.052411,14.239546c-15.477767,5.262441 -30.955534,10.834437 -46.123745,17.025544c-15.168212,5.881551 -30.026868,12.691769 -44.575969,19.811542c-14.549101,7.119773 -28.788647,14.858656 -42.718637,22.907095c-13.92999,8.048439 -27.550425,17.025544 -40.551749,26.621759c-26.002648,19.192431 -49.83841,40.861305 -70.578617,65.316176c-10.215326,12.382214 -19.811542,25.073982 -28.169536,38.694417c-8.357994,13.620435 -15.787322,27.550425 -21.978429,42.409081c-6.191107,14.549101 -11.143992,29.717313 -14.549101,45.195079c-1.857332,7.738883 -3.095553,15.477767 -4.024219,23.21665c-0.619111,4.024219 -0.928666,7.738883 -1.238221,11.763103c0,1.857332 -0.309555,3.714664 -0.309555,5.881551l0,2.785998l0,2.476443l0,1.547777c-0.619111,14.549101 0.309555,28.788647 3.714664,42.409081c3.405109,13.620435 8.977105,26.621759 17.025544,38.075307c8.048439,11.453548 18.263765,21.668874 29.717313,30.026868c11.763103,8.357994 24.764427,15.477767 38.384862,20.740208c13.620435,5.571996 28.169536,9.596216 42.718637,12.382214c7.429328,1.547777 14.858656,2.476443 21.978429,3.095553c0.928666,0 2.785998,0 4.64333,0l5.881551,-0.309555l11.453548,-0.619111l11.453548,-0.619111l5.881551,-0.309555l5.262441,-0.309555c0.309555,0 0.309555,0 0.928666,0l0.309555,0l0.309555,0c-0.309555,0 0.619111,0 -0.309555,0l0.619111,-0.309555l2.785998,-0.619111l5.571996,-1.238221c3.714664,-0.928666 7.429328,-1.857332 11.143992,-2.785998c14.549101,-4.024219 29.098202,-8.977105 42.718637,-14.858656c13.620435,-6.191107 26.931314,-13.31088 39.003973,-21.978429c12.072658,-8.667549 22.907095,-18.882876 31.265089,-30.955534c4.333775,-5.881551 8.048439,-12.382214 10.834437,-18.882876c1.547777,-3.405109 2.476443,-6.810217 3.405109,-10.215326c0.309555,-1.547777 0.928666,-3.405109 0.928666,-4.952885l0,-0.309555l0,0c0,-0.619111 0,0.309555 0,0.309555l0,-0.309555l0,-1.547777l0,-2.785998c0,-15.168212 -1.547777,-30.336423 -5.262441,-44.575969c-3.714664,-14.549101 -10.215326,-28.169536 -19.501986,-39.313528c-9.28666,-11.143992 -21.978429,-19.811542 -35.908419,-25.073982c-13.92999,-5.262441 -29.098202,-7.738883 -44.266413,-8.048439c-15.168212,-0.309555 -30.645979,1.238221 -45.504635,4.952885l-2.476443,-7.429328z" id="XMLID_33_"/>
   </g>
  </g>
 </g>
</svg>